G75*
G70*
%OFA0B0*%
%FSLAX24Y24*%
%IPPOS*%
%LPD*%
%AMOC8*
5,1,8,0,0,1.08239X$1,22.5*
%
%ADD10C,0.0434*%
%ADD11C,0.0940*%
%ADD12OC8,0.0710*%
%ADD13OC8,0.0700*%
%ADD14C,0.0700*%
%ADD15C,0.0680*%
%ADD16C,0.0785*%
%ADD17C,0.0674*%
%ADD18C,0.0610*%
%ADD19OC8,0.0680*%
%ADD20C,0.0710*%
%ADD21C,0.0674*%
%ADD22OC8,0.0595*%
%ADD23C,0.0440*%
D10*
X002688Y005938D03*
X002688Y007316D03*
X002688Y010938D03*
X002688Y012316D03*
X002688Y015938D03*
X002688Y017316D03*
X002688Y020938D03*
X002688Y022316D03*
X002688Y025938D03*
X002688Y027316D03*
X019309Y024681D03*
X019309Y023303D03*
D11*
X013761Y009639D02*
X012901Y009639D01*
X015221Y008888D02*
X015221Y008028D01*
X013761Y007277D02*
X012901Y007277D01*
D12*
X021503Y008977D03*
X022253Y006977D03*
X024128Y009852D03*
X025128Y009852D03*
X025128Y011352D03*
X024128Y011352D03*
X021503Y012102D03*
X023316Y014290D03*
X025253Y015102D03*
X028878Y011602D03*
X028878Y009602D03*
X027503Y008977D03*
X029371Y017679D03*
X031996Y017679D03*
X031996Y020679D03*
X029246Y020679D03*
X012563Y022002D03*
X011813Y024377D03*
X010063Y024377D03*
X009563Y022002D03*
X009813Y019377D03*
X012313Y019377D03*
D13*
X013813Y015627D03*
X011063Y014877D03*
X009813Y014877D03*
X013813Y012877D03*
X024746Y018429D03*
X024746Y019679D03*
X024996Y026929D03*
X024996Y029179D03*
D14*
X025996Y029179D03*
X025996Y026929D03*
X024746Y020679D03*
X024746Y017429D03*
X013813Y016627D03*
X012063Y014877D03*
X008813Y014877D03*
X013813Y011877D03*
D15*
X015138Y011877D02*
X015738Y011877D01*
X015738Y010877D02*
X015138Y010877D01*
X015138Y012877D02*
X015738Y012877D01*
X015738Y014627D02*
X015138Y014627D01*
X015138Y015627D02*
X015738Y015627D01*
X015738Y016627D02*
X015138Y016627D01*
X015138Y018502D02*
X015738Y018502D01*
X015738Y019502D02*
X015138Y019502D01*
X015138Y020502D02*
X015738Y020502D01*
X022059Y017917D02*
X022059Y017317D01*
X023059Y017317D02*
X023059Y017917D01*
X031016Y015477D02*
X031616Y015477D01*
X031616Y014477D02*
X031016Y014477D01*
X011113Y011021D02*
X010513Y011021D01*
X010513Y010021D02*
X011113Y010021D01*
X011113Y009021D02*
X010513Y009021D01*
X010513Y008021D02*
X011113Y008021D01*
X011113Y007021D02*
X010513Y007021D01*
X010513Y006021D02*
X011113Y006021D01*
X011113Y005021D02*
X010513Y005021D01*
X009363Y005021D02*
X008763Y005021D01*
X008763Y006021D02*
X009363Y006021D01*
X009363Y007021D02*
X008763Y007021D01*
X008763Y008021D02*
X009363Y008021D01*
X009363Y009021D02*
X008763Y009021D01*
X008763Y010021D02*
X009363Y010021D01*
X009363Y011021D02*
X008763Y011021D01*
D16*
X023894Y006955D02*
X023894Y006250D01*
X025863Y006250D02*
X025863Y006955D01*
X030151Y010493D02*
X030856Y010493D01*
X030856Y012462D02*
X030151Y012462D01*
X014547Y027400D02*
X014547Y028105D01*
X012579Y028105D02*
X012579Y027400D01*
X010547Y027400D02*
X010547Y028105D01*
X008579Y028105D02*
X008579Y027400D01*
D17*
X007798Y007571D02*
X007798Y006977D01*
X006599Y005817D02*
X006005Y005817D01*
X004846Y006977D02*
X004846Y007571D01*
D18*
X014724Y022163D02*
X015254Y022163D01*
X015254Y023163D02*
X014724Y023163D01*
X014724Y025155D02*
X015254Y025155D01*
D19*
X006438Y025627D03*
X005438Y025627D03*
X005438Y026627D03*
X006438Y026627D03*
X006438Y027627D03*
X005438Y027627D03*
X005438Y028627D03*
X006438Y028627D03*
X006438Y024627D03*
X005438Y024627D03*
X005438Y021627D03*
X006438Y021627D03*
X006438Y020627D03*
X006438Y019627D03*
X006438Y018627D03*
X006438Y017627D03*
X005438Y017627D03*
X005438Y018627D03*
X005438Y019627D03*
X005438Y020627D03*
X005438Y014627D03*
X005438Y013627D03*
X006438Y013627D03*
X006438Y014627D03*
X006438Y012627D03*
X006438Y011627D03*
X006438Y010627D03*
X005438Y010627D03*
X005438Y011627D03*
X005438Y012627D03*
D20*
X009063Y024377D03*
X012813Y024377D03*
X026253Y015102D03*
D21*
X020503Y014977D03*
X020503Y013977D03*
X020503Y012977D03*
X020503Y011977D03*
X020503Y010977D03*
X020503Y009477D03*
X020503Y008477D03*
X020503Y007477D03*
X020503Y006477D03*
X020503Y005477D03*
X017503Y005477D03*
X017503Y006477D03*
X017503Y007477D03*
X017503Y008477D03*
X017503Y009477D03*
X017503Y010977D03*
X017503Y011977D03*
X017503Y012977D03*
X017503Y013977D03*
X017503Y014977D03*
D22*
X027367Y023281D03*
X028068Y023281D03*
X028769Y023281D03*
X029470Y023281D03*
X030170Y023281D03*
X030871Y023281D03*
X031572Y023281D03*
X032273Y023281D03*
X032273Y028911D03*
X031572Y028911D03*
X030871Y028911D03*
X030170Y028911D03*
X029470Y028911D03*
X028769Y028911D03*
X028068Y028911D03*
X027367Y028911D03*
D23*
X004813Y005627D03*
X004313Y006002D03*
X004313Y006502D03*
X004188Y007002D03*
X008438Y011877D03*
X007313Y015002D03*
X005938Y016002D03*
X005438Y016377D03*
X005938Y016752D03*
X004938Y015627D03*
X010063Y016252D03*
X012813Y016252D03*
X013188Y017252D03*
X013438Y018002D03*
X014313Y018002D03*
X013813Y020752D03*
X012813Y025877D03*
X020496Y027054D03*
X020996Y026054D03*
X020996Y024429D03*
X022746Y024679D03*
X023246Y024679D03*
X024496Y025804D03*
X024871Y024304D03*
X025871Y023179D03*
X026246Y022554D03*
X025371Y022554D03*
X024871Y021929D03*
X025246Y021554D03*
X023496Y021554D03*
X022871Y021554D03*
X022746Y022804D03*
X023246Y022929D03*
X023621Y022679D03*
X026121Y024304D03*
X026996Y024679D03*
X028746Y022679D03*
X029246Y022429D03*
X026621Y018054D03*
X029566Y013352D03*
X024878Y006602D03*
X027628Y005227D03*
X019066Y005352D03*
X018066Y012352D03*
X020621Y021179D03*
X022496Y027054D03*
X026746Y029679D03*
X030121Y029804D03*
M02*
