%
M48
M72
T01C0.0200
T02C0.0330
T03C0.0330
T04C0.0330
T05C0.0360
T06C0.0405
T07C0.0405
T08C0.0460
%
T01
X4813Y5627
X4313Y6002
X4313Y6502
X4188Y7002
X8438Y11877
X7313Y15002
X5938Y16002
X5438Y16377
X5938Y16752
X4938Y15627
X10063Y16252
X12813Y16252
X13188Y17252
X13438Y18002
X14313Y18002
X13813Y20752
X12813Y25877
X20496Y27054
X20996Y26054
X20996Y24429
X22746Y24679
X23246Y24679
X24496Y25804
X24871Y24304
X25871Y23179
X26246Y22554
X25371Y22554
X24871Y21929
X25246Y21554
X23496Y21554
X22871Y21554
X22746Y22804
X23246Y22929
X23621Y22679
X26121Y24304
X26996Y24679
X28746Y22679
X29246Y22429
X26621Y18054
X29566Y13352
X24878Y6602
X27628Y5227
X19066Y5352
X18066Y12352
X20621Y21179
X22496Y27054
X26746Y29679
X30121Y29804
T02
X30170Y28911
X29470Y28911
X28769Y28911
X28068Y28911
X27367Y28911
X30871Y28911
X31572Y28911
X32273Y28911
X32273Y23281
X31572Y23281
X30871Y23281
X30170Y23281
X29470Y23281
X28769Y23281
X28068Y23281
X27367Y23281
X15221Y8458
X13331Y7277
T03
X13813Y11877
X13813Y12877
X12063Y14877
X11063Y14877
X9813Y14877
X8813Y14877
X9813Y19377
X12313Y19377
X12563Y22002
X12813Y24377
X11813Y24377
X10063Y24377
X9063Y24377
X9563Y22002
X13813Y16627
X13813Y15627
X21503Y12102
X23316Y14290
X25253Y15102
X26253Y15102
X24746Y17429
X24746Y18429
X24746Y19679
X24746Y20679
X29246Y20679
X31996Y20679
X31996Y17679
X29371Y17679
X28878Y11602
X28878Y9602
X27503Y8977
X25128Y9852
X24128Y9852
X24128Y11352
X25128Y11352
X21503Y8977
X22253Y6977
X24996Y26929
X25996Y26929
X25996Y29179
X24996Y29179
T04
X14989Y25155
X14989Y23163
X14989Y22163
T05
X19309Y23303
X19309Y24681
X2688Y25938
X2688Y27316
X2688Y22316
X2688Y20938
X2688Y17316
X2688Y15938
X2688Y12316
X2688Y10938
X2688Y7316
X2688Y5938
T06
X4846Y7274
X6302Y5817
X7798Y7274
X13331Y9639
X17503Y9477
X17503Y8477
X17503Y7477
X17503Y6477
X17503Y5477
X20503Y5477
X20503Y6477
X20503Y7477
X20503Y8477
X20503Y9477
X20503Y10977
X20503Y11977
X20503Y12977
X20503Y13977
X20503Y14977
X17503Y14977
X17503Y13977
X17503Y12977
X17503Y11977
X17503Y10977
T07
X15438Y10877
X15438Y11877
X15438Y12877
X15438Y14627
X15438Y15627
X15438Y16627
X15438Y18502
X15438Y19502
X15438Y20502
X22059Y17617
X23059Y17617
X31316Y15477
X31316Y14477
X10813Y11021
X10813Y10021
X10813Y9021
X10813Y8021
X10813Y7021
X10813Y6021
X10813Y5021
X9063Y5021
X9063Y6021
X9063Y7021
X9063Y8021
X9063Y9021
X9063Y10021
X9063Y11021
X6438Y10627
X5438Y10627
X5438Y11627
X6438Y11627
X6438Y12627
X5438Y12627
X5438Y13627
X6438Y13627
X6438Y14627
X5438Y14627
X5438Y17627
X6438Y17627
X6438Y18627
X5438Y18627
X5438Y19627
X6438Y19627
X6438Y20627
X5438Y20627
X5438Y21627
X6438Y21627
X6438Y24627
X5438Y24627
X5438Y25627
X6438Y25627
X6438Y26627
X5438Y26627
X5438Y27627
X6438Y27627
X6438Y28627
X5438Y28627
T08
X8579Y27752
X10547Y27752
X12579Y27752
X14547Y27752
X30503Y12462
X30503Y10493
X25863Y6602
X23894Y6602
M30
